# Blender 3.4.1
# www.blender.org
mtllib Stairs.mtl
o Cube
v 1.000000 -1.000000 -1.000000
v 1.000000 -1.000000 1.000000
v -1.000000 1.000000 -1.000000
v -1.000000 -1.000000 -1.000000
v -1.000000 1.000000 1.000000
v -1.000000 -1.000000 1.000000
v -0.626686 1.000000 -1.000000
v 1.000000 -0.626686 -1.000000
v -0.626686 0.593328 -1.000000
v -0.220015 0.593328 -1.000000
v -0.220015 0.186657 -1.000000
v 0.186657 0.186657 -1.000000
v 0.186657 -0.220015 -1.000000
v 0.593328 -0.220015 -1.000000
v 0.593328 -0.626686 -1.000000
v 1.000000 -0.626686 1.000000
v -0.626686 1.000000 1.000000
v 0.593328 -0.626686 1.000000
v 0.593328 -0.220015 1.000000
v 0.186657 -0.220015 1.000000
v 0.186657 0.186657 1.000000
v -0.220015 0.186657 1.000000
v -0.220015 0.593328 1.000000
v -0.626686 0.593328 1.000000
vn -0.0000 -0.0000 1.0000
vn -1.0000 -0.0000 -0.0000
vn -0.0000 -1.0000 -0.0000
vn -0.0000 1.0000 -0.0000
vn 1.0000 -0.0000 -0.0000
vn -0.0000 -0.0000 -1.0000
vt 0.375000 0.500000
vt 0.375000 0.750000
vt 0.875000 0.500000
vt 0.625000 0.250000
vt 0.125000 0.500000
vt 0.375000 0.250000
vt 0.625000 1.000000
vt 0.625000 0.000000
vt 0.875000 0.750000
vt 0.375000 1.000000
vt 0.375000 0.000000
vt 0.125000 0.750000
vt 0.828336 0.500000
vt 0.625000 0.296664
vt 0.421664 0.500000
vt 0.828336 0.500000
vt 0.574166 0.296664
vt 0.777502 0.500000
vt 0.574166 0.347498
vt 0.777502 0.500000
vt 0.523332 0.347498
vt 0.625000 0.500000
vt 0.523332 0.398332
vt 0.472498 0.500000
vt 0.472498 0.398332
vt 0.472498 0.500000
vt 0.472498 0.449166
vt 0.421664 0.500000
vt 0.421664 0.449166
vt 0.421664 0.750000
vt 0.625000 0.953336
vt 0.828336 0.750000
vt 0.421664 0.800834
vt 0.421664 0.750000
vt 0.472498 0.800834
vt 0.472498 0.750000
vt 0.472498 0.851668
vt 0.472498 0.750000
vt 0.523332 0.851668
vt 0.625000 0.750000
vt 0.523332 0.902502
vt 0.777502 0.750000
vt 0.574166 0.902502
vt 0.777502 0.750000
vt 0.574166 0.953336
vt 0.828336 0.750000
s 0
usemtl Material
f 2/2/1 16/30/1 18/33/1 19/35/1 20/37/1 21/39/1 22/41/1 23/43/1 24/45/1 17/31/1 5/7/1 6/10/1
f 6/11/2 5/8/2 3/4/2 4/6/2
f 4/5/3 1/1/3 2/2/3 6/12/3
f 7/13/4 3/3/4 5/9/4 17/32/4
f 1/1/5 8/15/5 16/30/5 2/2/5
f 7/13/5 17/32/5 24/46/5 9/16/5
f 9/16/4 24/46/4 23/44/4 10/18/4
f 10/18/5 23/44/5 22/42/5 11/20/5
f 11/20/4 22/42/4 21/40/4 12/22/4
f 12/22/5 21/40/5 20/38/5 13/24/5
f 13/24/4 20/38/4 19/36/4 14/26/4
f 14/26/5 19/36/5 18/34/5 15/28/5
f 15/28/4 18/34/4 16/30/4 8/15/4
f 4/6/6 3/4/6 7/14/6 9/17/6 10/19/6 11/21/6 12/23/6 13/25/6 14/27/6 15/29/6 8/15/6 1/1/6
